<svg width="25" height="25" viewBox="0 0 25 25" fill="none" xmlns="http://www.w3.org/2000/svg">
<path d="M19.9805 7.5V4.98047H4.98047V7.5H19.9805ZM15 15V12.4805H4.98047V15H15ZM4.98047 8.73047V11.25H19.9805V8.73047H4.98047ZM22.5 0C23.1641 0 23.7402 0.244141 24.2285 0.732422C24.7168 1.2207 24.9609 1.79688 24.9609 2.46094V17.4609C24.9609 18.125 24.7168 18.7109 24.2285 19.2188C23.7402 19.7266 23.1641 19.9805 22.5 19.9805H4.98047L0 24.9609V2.46094C0 1.79688 0.244141 1.2207 0.732422 0.732422C1.2207 0.244141 1.79688 0 2.46094 0H22.5Z" fill="#111827"/>
</svg>
