<svg width="17" height="21" viewBox="0 0 17 21" fill="none" xmlns="http://www.w3.org/2000/svg">
<path d="M11.1094 7.03125V5.01562C11.1094 4.17188 10.8047 3.44531 10.1953 2.83594C9.58594 2.22656 8.85938 1.92188 8.01562 1.92188C7.17188 1.92188 6.44531 2.22656 5.83594 2.83594C5.22656 3.44531 4.92188 4.17188 4.92188 5.01562V7.03125H11.1094ZM6.60938 15.4219C7.01562 15.8281 7.48438 16.0312 8.01562 16.0312C8.54688 16.0312 9.01562 15.8281 9.42188 15.4219C9.82812 15.0156 10.0312 14.5469 10.0312 14.0156C10.0312 13.4844 9.82812 13.0156 9.42188 12.6094C9.01562 12.2031 8.54688 12 8.01562 12C7.48438 12 7.01562 12.2031 6.60938 12.6094C6.20312 13.0156 6 13.4844 6 14.0156C6 14.5469 6.20312 15.0156 6.60938 15.4219ZM14.0156 7.03125C14.5469 7.03125 15.0156 7.22656 15.4219 7.61719C15.8281 8.00781 16.0312 8.46875 16.0312 9V19.0312C16.0312 19.5625 15.8281 20.0234 15.4219 20.4141C15.0156 20.8047 14.5469 21 14.0156 21H2.01562C1.48438 21 1.01562 20.8047 0.609375 20.4141C0.203125 20.0234 0 19.5625 0 19.0312V9C0 8.46875 0.203125 8.00781 0.609375 7.61719C1.01562 7.22656 1.48438 7.03125 2.01562 7.03125H3V5.01562C3 3.64062 3.49219 2.46094 4.47656 1.47656C5.46094 0.492188 6.64062 0 8.01562 0C9.39062 0 10.5703 0.492188 11.5547 1.47656C12.5391 2.46094 13.0312 3.64062 13.0312 5.01562V7.03125H14.0156Z" fill="#9CA3AF"/>
</svg>
