<svg width="21" height="18" viewBox="0 0 21 18" fill="none" xmlns="http://www.w3.org/2000/svg">
<path d="M12 0C10.7812 0 9.625 0.234375 8.53125 0.703125C7.4375 1.17188 6.47656 1.82031 5.64844 2.64844C4.82031 3.47656 4.17188 4.42969 3.70312 5.50781C3.23438 6.58594 3 7.75 3 9H0L4.03125 12.9844L8.01562 9H5.01562C5.01562 8.03125 5.19531 7.125 5.55469 6.28125C5.91406 5.4375 6.41406 4.69531 7.05469 4.05469C7.69531 3.41406 8.4375 2.91406 9.28125 2.55469C10.125 2.19531 11.0312 2.01562 12 2.01562C12.9688 2.01562 13.875 2.19531 14.7188 2.55469C15.5625 2.91406 16.3047 3.41406 16.9453 4.05469C17.5859 4.69531 18.0938 5.4375 18.4688 6.28125C18.8438 7.125 19.0312 8.03125 19.0312 9C19.0312 9.96875 18.8438 10.875 18.4688 11.7188C18.0938 12.5625 17.5859 13.3047 16.9453 13.9453C16.3047 14.5859 15.5625 15.0859 14.7188 15.4453C13.875 15.8047 12.9688 15.9844 12 15.9844C11.0625 15.9844 10.1719 15.8125 9.32812 15.4688C8.48438 15.125 7.75 14.6406 7.125 14.0156L5.71875 15.4219C6.53125 16.2031 7.47656 16.8281 8.55469 17.2969C9.63281 17.7656 10.7812 18 12 18C13.25 18 14.4219 17.7656 15.5156 17.2969C16.6094 16.8281 17.5625 16.1797 18.375 15.3516C19.1875 14.5234 19.8281 13.5703 20.2969 12.4922C20.7656 11.4141 21 10.25 21 9C21 7.75 20.7656 6.58594 20.2969 5.50781C19.8281 4.42969 19.1875 3.47656 18.375 2.64844C17.5625 1.82031 16.6094 1.17188 15.5156 0.703125C14.4219 0.234375 13.25 0 12 0ZM14.0156 8.01562V6.98438C14.0156 6.45312 13.8203 5.99219 13.4297 5.60156C13.0391 5.21094 12.5625 5.01562 12 5.01562C11.4688 5.01562 11.0078 5.21094 10.6172 5.60156C10.2266 5.99219 10.0312 6.45312 10.0312 6.98438V8.01562C9.75 8.01562 9.50781 8.10938 9.30469 8.29688C9.10156 8.48438 9 8.71875 9 9V12C9 12.2812 9.10156 12.5156 9.30469 12.7031C9.50781 12.8906 9.75 12.9844 10.0312 12.9844H14.0156C14.2969 12.9844 14.5312 12.8906 14.7188 12.7031C14.9062 12.5156 15 12.2812 15 12V9C15 8.71875 14.9062 8.48438 14.7188 8.29688C14.5312 8.10938 14.2969 8.01562 14.0156 8.01562ZM13.0312 8.01562H11.0156V6.98438C11.0156 6.73438 11.1172 6.50781 11.3203 6.30469C11.5234 6.10156 11.75 6 12 6C12.2812 6 12.5234 6.10156 12.7266 6.30469C12.9297 6.50781 13.0312 6.73438 13.0312 6.98438V8.01562Z" fill="#9CA3AF"/>
</svg>
